<svg width="143" height="28" viewBox="0 0 143 28" fill="none" xmlns="http://www.w3.org/2000/svg">
<path d="M39.9207 22V6H50.7207V9.2H43.6807V12.5H49.7207V15.62H43.6807V18.8H50.5207V22H39.9207ZM54.1846 22V6H59.4446C61.7113 6 63.4446 6.68667 64.6446 8.06C65.8446 9.43333 66.4446 11.4133 66.4446 14C66.4446 16.5867 65.8446 18.5667 64.6446 19.94C63.4446 21.3133 61.7113 22 59.4446 22H54.1846ZM57.9446 18.5H59.4446C60.5246 18.5 61.3313 18.1333 61.8646 17.4C62.4113 16.6533 62.6846 15.52 62.6846 14C62.6846 12.48 62.4113 11.3533 61.8646 10.62C61.3313 9.87333 60.5246 9.5 59.4446 9.5H57.9446V18.5ZM69.1885 22V18.42H73.1085V9.58H69.1885V6H80.7885V9.58H76.8685V18.42H80.7885V22H69.1885ZM85.1324 22V6H95.9324V9.58H88.8924V12.86H94.9324V16.1H88.8924V22H85.1324ZM99.1963 22V18.42H103.116V9.58H99.1963V6H110.796V9.58H106.876V18.42H110.796V22H99.1963ZM120.26 22.4C118.22 22.4 116.667 21.6867 115.6 20.26C114.534 18.8333 114 16.7467 114 14C114 11.2533 114.547 9.16667 115.64 7.74C116.747 6.31333 118.34 5.6 120.42 5.6C121.62 5.6 122.654 5.84667 123.52 6.34C124.387 6.83333 125.067 7.54667 125.56 8.48C126.054 9.41333 126.34 10.54 126.42 11.86H122.98C122.794 10.9 122.487 10.1867 122.06 9.72C121.647 9.25333 121.1 9.02 120.42 9.02C119.54 9.02 118.874 9.43333 118.42 10.26C117.98 11.0733 117.76 12.32 117.76 14C117.76 15.68 117.967 16.9333 118.38 17.76C118.794 18.5733 119.42 18.98 120.26 18.98C120.887 18.98 121.4 18.7667 121.8 18.34C122.2 17.9 122.5 17.2333 122.7 16.34H126.14C126.06 17.62 125.767 18.7133 125.26 19.62C124.767 20.5133 124.094 21.2 123.24 21.68C122.4 22.16 121.407 22.4 120.26 22.4ZM135.004 22.4C132.897 22.4 131.291 21.6867 130.184 20.26C129.091 18.8333 128.544 16.7467 128.544 14C128.544 11.2533 129.091 9.16667 130.184 7.74C131.291 6.31333 132.897 5.6 135.004 5.6C137.111 5.6 138.711 6.31333 139.804 7.74C140.911 9.16667 141.464 11.2533 141.464 14C141.464 16.7467 140.911 18.8333 139.804 20.26C138.711 21.6867 137.111 22.4 135.004 22.4ZM135.004 18.98C135.911 18.98 136.584 18.5733 137.024 17.76C137.477 16.9333 137.704 15.68 137.704 14C137.704 12.32 137.477 11.0733 137.024 10.26C136.584 9.43333 135.911 9.02 135.004 9.02C134.097 9.02 133.417 9.43333 132.964 10.26C132.524 11.0733 132.304 12.32 132.304 14C132.304 15.68 132.524 16.9333 132.964 17.76C133.417 18.5733 134.097 18.98 135.004 18.98Z" fill="white"/>
<g clip-path="url(#clip0_145_951)">
<path d="M22.467 6.1145H10.8396V0H28.0001L22.467 6.1145Z" fill="#FF5E14"/>
<path d="M14.9641 17.4231H10.8396V11.3086H20.4972L14.9641 17.4231Z" fill="#FF5E14"/>
<path d="M22.467 28.0002H10.8396V21.8857H28.0001L22.467 28.0002Z" fill="#FF5E14"/>
<path d="M8.40593 0H0V28H8.40593V0Z" fill="#FF5E14"/>
</g>
<defs>
<clipPath id="clip0_145_951">
<rect width="28" height="28" fill="white"/>
</clipPath>
</defs>
</svg>
